<svg xmlns="http://www.w3.org/2000/svg" viewBox="0 0 800 800" width="800" height="800"><defs><linearGradient id="bg" x1="0" y1="0" x2="0" y2="1"><stop offset="0" stop-color="#EEF4EC"/><stop offset="1" stop-color="#DCE8D8"/></linearGradient></defs><rect width="800" height="800" fill="url(#bg)"/><ellipse cx="400" cy="625" rx="190" ry="18" fill="rgba(0,0,0,0.08)"/><g transform="translate(400 450) scale(1.25) translate(-400 -450)"><path d="M400,445 Q426.31224817886675,242.60287408457793 452.62449635773345,262.60287408457793" stroke="#4E7A3A" stroke-width="4" fill="none"/><g transform="translate(452.6,262.6) rotate(27.1) scale(0.672)"><path d="M0,40 C-60,0 -50,-60 0,-30 C50,-60 60,0 0,40Z" fill="#2A6B35"/><path d="M0,38 L0,-28" stroke="rgba(0,0,0,0.15)" stroke-width="4"/></g><path d="M400,445 Q383.2902361702096,286.9428021822441 366.58047234041913,306.9428021822441" stroke="#4E7A3A" stroke-width="4" fill="none"/><g transform="translate(366.6,306.9) rotate(-18.6) scale(0.598)"><path d="M0,40 C-60,0 -50,-60 0,-30 C50,-60 60,0 0,40Z" fill="#3F8F4A"/><path d="M0,38 L0,-28" stroke="rgba(0,0,0,0.15)" stroke-width="4"/></g><path d="M400,445 Q451.3089060509094,364.2621123836699 502.6178121018188,384.2621123836699" stroke="#4E7A3A" stroke-width="4" fill="none"/><g transform="translate(502.6,384.3) rotate(-26.0) scale(0.650)"><path d="M0,40 C-60,0 -50,-60 0,-30 C50,-60 60,0 0,40Z" fill="#3F8F4A"/><path d="M0,38 L0,-28" stroke="rgba(0,0,0,0.15)" stroke-width="4"/></g><path d="M400,445 Q421.8754186786219,307.75274693826105 443.75083735724377,327.75274693826105" stroke="#4E7A3A" stroke-width="4" fill="none"/><g transform="translate(443.8,327.8) rotate(-36.2) scale(0.572)"><path d="M0,40 C-60,0 -50,-60 0,-30 C50,-60 60,0 0,40Z" fill="#2A6B35"/><path d="M0,38 L0,-28" stroke="rgba(0,0,0,0.15)" stroke-width="4"/></g><path d="M400,445 Q466.4431162069286,315.069428098892 532.8862324138572,335.069428098892" stroke="#4E7A3A" stroke-width="4" fill="none"/><g transform="translate(532.9,335.1) rotate(23.2) scale(0.739)"><path d="M0,40 C-60,0 -50,-60 0,-30 C50,-60 60,0 0,40Z" fill="#3F8F4A"/><path d="M0,38 L0,-28" stroke="rgba(0,0,0,0.15)" stroke-width="4"/></g><path d="M400,445 Q434.7783326528682,335.9673617731052 469.5566653057364,355.9673617731052" stroke="#4E7A3A" stroke-width="4" fill="none"/><g transform="translate(469.6,356.0) rotate(29.8) scale(0.572)"><path d="M0,40 C-60,0 -50,-60 0,-30 C50,-60 60,0 0,40Z" fill="#3F8F4A"/><path d="M0,38 L0,-28" stroke="rgba(0,0,0,0.15)" stroke-width="4"/></g><path d="M400,445 Q336.76496650506704,384.7997254461251 273.5299330101341,404.7997254461251" stroke="#4E7A3A" stroke-width="4" fill="none"/><g transform="translate(273.5,404.8) rotate(-17.6) scale(0.700)"><path d="M0,40 C-60,0 -50,-60 0,-30 C50,-60 60,0 0,40Z" fill="#2A6B35"/><path d="M0,38 L0,-28" stroke="rgba(0,0,0,0.15)" stroke-width="4"/></g><path d="M400,445 Q494.71213423792693,366.65974125587957 589.4242684758539,386.65974125587957" stroke="#4E7A3A" stroke-width="4" fill="none"/><g transform="translate(589.4,386.7) rotate(33.7) scale(0.568)"><path d="M0,40 C-60,0 -50,-60 0,-30 C50,-60 60,0 0,40Z" fill="#3F8F4A"/><path d="M0,38 L0,-28" stroke="rgba(0,0,0,0.15)" stroke-width="4"/></g><path d="M400,445 Q302.6854251955064,379.39667563277237 205.37085039101285,399.39667563277237" stroke="#4E7A3A" stroke-width="4" fill="none"/><g transform="translate(205.4,399.4) rotate(-11.2) scale(0.595)"><path d="M0,40 C-60,0 -50,-60 0,-30 C50,-60 60,0 0,40Z" fill="#3F8F4A"/><path d="M0,38 L0,-28" stroke="rgba(0,0,0,0.15)" stroke-width="4"/></g><path d="M400,445 Q336.51814329632293,385.63782281003955 273.0362865926459,405.63782281003955" stroke="#4E7A3A" stroke-width="4" fill="none"/><g transform="translate(273.0,405.6) rotate(-14.3) scale(0.591)"><path d="M0,40 C-60,0 -50,-60 0,-30 C50,-60 60,0 0,40Z" fill="#2A6B35"/><path d="M0,38 L0,-28" stroke="rgba(0,0,0,0.15)" stroke-width="4"/></g><path d="M400,445 Q336.98551451241383,325.6212855482836 273.97102902482766,345.6212855482836" stroke="#4E7A3A" stroke-width="4" fill="none"/><g transform="translate(274.0,345.6) rotate(13.9) scale(0.579)"><path d="M0,40 C-60,0 -50,-60 0,-30 C50,-60 60,0 0,40Z" fill="#3F8F4A"/><path d="M0,38 L0,-28" stroke="rgba(0,0,0,0.15)" stroke-width="4"/></g><path d="M400,445 Q348.7069368548273,345.3401246932313 297.4138737096546,365.3401246932313" stroke="#4E7A3A" stroke-width="4" fill="none"/><g transform="translate(297.4,365.3) rotate(-17.9) scale(0.757)"><path d="M0,40 C-60,0 -50,-60 0,-30 C50,-60 60,0 0,40Z" fill="#3F8F4A"/><path d="M0,38 L0,-28" stroke="rgba(0,0,0,0.15)" stroke-width="4"/></g><path d="M400,445 Q465.14783661284224,293.5021184676401 530.2956732256845,313.5021184676401" stroke="#4E7A3A" stroke-width="4" fill="none"/><g transform="translate(530.3,313.5) rotate(12.3) scale(0.698)"><path d="M0,40 C-60,0 -50,-60 0,-30 C50,-60 60,0 0,40Z" fill="#2A6B35"/><path d="M0,38 L0,-28" stroke="rgba(0,0,0,0.15)" stroke-width="4"/></g><path d="M400,445 Q419.15844061050507,322.171477178115 438.3168812210101,342.171477178115" stroke="#4E7A3A" stroke-width="4" fill="none"/><g transform="translate(438.3,342.2) rotate(-4.3) scale(0.710)"><path d="M0,40 C-60,0 -50,-60 0,-30 C50,-60 60,0 0,40Z" fill="#3F8F4A"/><path d="M0,38 L0,-28" stroke="rgba(0,0,0,0.15)" stroke-width="4"/></g></g><path d="M275.0,450 L525.0,450 L505.0,615 Q505.0,623 495.0,623 L305.0,623 Q295.0,623 295.0,615Z" fill="#FBFBF8" stroke="#E2E2DA" stroke-width="3"/><rect x="269.0" y="442" width="262" height="20" rx="8" fill="#FFFFFF" stroke="#E2E2DA" stroke-width="3"/><circle cx="400" cy="535.8" r="32.5" fill="#CFE6EE" stroke="#B5D3DE" stroke-width="2"/><text x="400" y="540.8" font-family="Arial, sans-serif" font-size="11" font-weight="700" fill="#5A4636" text-anchor="middle">buddy4plant</text><rect x="0" y="650" width="800" height="150" fill="rgba(255,255,255,0.92)"/><text x="400" y="708" font-family="Georgia, 'Times New Roman', serif" font-size="44" font-weight="700" fill="#1F3B22" text-anchor="middle">English Ivy Plant In</text><text x="400" y="760" font-family="Georgia, 'Times New Roman', serif" font-size="44" font-weight="700" fill="#1F3B22" text-anchor="middle">Hanging Planter</text><text x="40" y="60" font-family="Arial, sans-serif" font-size="24" font-weight="700" fill="#1F3B22" opacity="0.75">buddy4plant</text><text x="760" y="60" font-family="Arial, sans-serif" font-size="22" font-weight="700" fill="#1F3B22" opacity="0.6" text-anchor="end">Indoor Plant</text></svg>