<svg xmlns="http://www.w3.org/2000/svg" viewBox="0 0 800 800" width="800" height="800"><defs><linearGradient id="bg" x1="0" y1="0" x2="0" y2="1"><stop offset="0" stop-color="#EEF4EC"/><stop offset="1" stop-color="#DCE8D8"/></linearGradient></defs><rect width="800" height="800" fill="url(#bg)"/><ellipse cx="400" cy="625" rx="190" ry="18" fill="rgba(0,0,0,0.08)"/><g transform="translate(400 450) scale(1.25) translate(-400 -450)"><path d="M400.0,455.0 Q338.8,428.6 298.1,402.2" stroke="#4E7A3A" stroke-width="4" fill="none" stroke-linecap="round"/><path d="M298.1,432.2 Q277.2,392.1 232.4,398.2 Q253.3,438.3 298.1,432.2Z" fill="#2A6B35"/><path d="M298.1,432.2 L232.4,398.2" stroke="rgba(0,0,0,0.18)" stroke-width="3" fill="none"/><path d="M400.0,455.0 Q356.5,427.0 327.4,398.9" stroke="#4E7A3A" stroke-width="4" fill="none" stroke-linecap="round"/><path d="M327.4,428.9 Q317.1,388.1 275.0,388.4 Q285.3,429.3 327.4,428.9Z" fill="#3F8F4A"/><path d="M327.4,428.9 L275.0,388.4" stroke="rgba(0,0,0,0.18)" stroke-width="3" fill="none"/><path d="M400.0,455.0 Q355.6,413.2 325.9,371.3" stroke="#4E7A3A" stroke-width="4" fill="none" stroke-linecap="round"/><path d="M325.9,401.3 Q321.9,357.6 279.0,348.4 Q283.0,392.1 325.9,401.3Z" fill="#2A6B35"/><path d="M325.9,401.3 L279.0,348.4" stroke="rgba(0,0,0,0.18)" stroke-width="3" fill="none"/><path d="M400.0,455.0 Q373.1,409.4 355.2,363.8" stroke="#4E7A3A" stroke-width="4" fill="none" stroke-linecap="round"/><path d="M355.2,393.8 Q365.2,355.0 328.4,339.1 Q318.5,377.9 355.2,393.8Z" fill="#3F8F4A"/><path d="M355.2,393.8 L328.4,339.1" stroke="rgba(0,0,0,0.18)" stroke-width="3" fill="none"/><path d="M400.0,455.0 Q371.2,414.5 352.0,373.9" stroke="#4E7A3A" stroke-width="4" fill="none" stroke-linecap="round"/><path d="M352.0,403.9 Q355.8,359.3 314.9,341.2 Q311.0,385.8 352.0,403.9Z" fill="#2A6B35"/><path d="M352.0,403.9 L314.9,341.2" stroke="rgba(0,0,0,0.18)" stroke-width="3" fill="none"/><path d="M400.0,455.0 Q391.6,400.4 385.9,345.7" stroke="#4E7A3A" stroke-width="4" fill="none" stroke-linecap="round"/><path d="M385.9,375.7 Q406.9,334.8 376.2,300.5 Q355.3,341.4 385.9,375.7Z" fill="#3F8F4A"/><path d="M385.9,375.7 L376.2,300.5" stroke="rgba(0,0,0,0.18)" stroke-width="3" fill="none"/><path d="M400.0,455.0 Q399.3,394.1 398.9,333.2" stroke="#4E7A3A" stroke-width="4" fill="none" stroke-linecap="round"/><path d="M398.9,363.2 Q424.5,325.6 398.2,288.4 Q372.5,326.1 398.9,363.2Z" fill="#2A6B35"/><path d="M398.9,363.2 L398.2,288.4" stroke="rgba(0,0,0,0.18)" stroke-width="3" fill="none"/><path d="M400.0,455.0 Q400.7,404.1 401.1,353.1" stroke="#4E7A3A" stroke-width="4" fill="none" stroke-linecap="round"/><path d="M401.1,383.1 Q427.5,344.5 402.0,305.2 Q375.6,343.9 401.1,383.1Z" fill="#3F8F4A"/><path d="M401.1,383.1 L402.0,305.2" stroke="rgba(0,0,0,0.18)" stroke-width="3" fill="none"/><path d="M400.0,455.0 Q411.3,402.4 418.8,349.8" stroke="#4E7A3A" stroke-width="4" fill="none" stroke-linecap="round"/><path d="M418.8,379.8 Q450.1,352.7 430.2,316.3 Q398.9,343.5 418.8,379.8Z" fill="#2A6B35"/><path d="M418.8,379.8 L430.2,316.3" stroke="rgba(0,0,0,0.18)" stroke-width="3" fill="none"/><path d="M400.0,455.0 Q431.8,404.2 452.9,353.3" stroke="#4E7A3A" stroke-width="4" fill="none" stroke-linecap="round"/><path d="M452.9,383.3 Q492.4,363.9 485.7,320.4 Q446.3,339.9 452.9,383.3Z" fill="#3F8F4A"/><path d="M452.9,383.3 L485.7,320.4" stroke="rgba(0,0,0,0.18)" stroke-width="3" fill="none"/><path d="M400.0,455.0 Q429.9,409.1 449.8,363.3" stroke="#4E7A3A" stroke-width="4" fill="none" stroke-linecap="round"/><path d="M449.8,393.3 Q487.2,378.8 478.9,339.5 Q441.5,354.0 449.8,393.3Z" fill="#2A6B35"/><path d="M449.8,393.3 L478.9,339.5" stroke="rgba(0,0,0,0.18)" stroke-width="3" fill="none"/><path d="M400.0,455.0 Q436.5,422.6 460.8,390.1" stroke="#4E7A3A" stroke-width="4" fill="none" stroke-linecap="round"/><path d="M460.8,420.1 Q502.7,413.5 506.7,371.3 Q464.8,377.9 460.8,420.1Z" fill="#3F8F4A"/><path d="M460.8,420.1 L506.7,371.3" stroke="rgba(0,0,0,0.18)" stroke-width="3" fill="none"/><path d="M400.0,455.0 Q461.0,423.9 501.7,392.8" stroke="#4E7A3A" stroke-width="4" fill="none" stroke-linecap="round"/><path d="M501.7,422.8 Q538.5,430.7 548.2,394.3 Q511.3,386.4 501.7,422.8Z" fill="#2A6B35"/><path d="M501.7,422.8 L548.2,394.3" stroke="rgba(0,0,0,0.18)" stroke-width="3" fill="none"/><path d="M400.0,455.0 Q459.2,434.6 498.7,414.3" stroke="#4E7A3A" stroke-width="4" fill="none" stroke-linecap="round"/><path d="M498.7,444.3 Q543.4,454.0 568.2,415.6 Q523.5,405.9 498.7,444.3Z" fill="#3F8F4A"/><path d="M498.7,444.3 L568.2,415.6" stroke="rgba(0,0,0,0.18)" stroke-width="3" fill="none"/></g><path d="M275.0,450 L525.0,450 L505.0,615 Q505.0,623 495.0,623 L305.0,623 Q295.0,623 295.0,615Z" fill="#FBFBF8" stroke="#E2E2DA" stroke-width="3"/><rect x="269.0" y="442" width="262" height="20" rx="8" fill="#FFFFFF" stroke="#E2E2DA" stroke-width="3"/><circle cx="400" cy="535.8" r="32.5" fill="#CFE6EE" stroke="#B5D3DE" stroke-width="2"/><text x="400" y="540.8" font-family="Arial, sans-serif" font-size="11" font-weight="700" fill="#5A4636" text-anchor="middle">buddy4plant</text><rect x="0" y="650" width="800" height="150" fill="rgba(255,255,255,0.92)"/><text x="400" y="708" font-family="Georgia, 'Times New Roman', serif" font-size="44" font-weight="700" fill="#1F3B22" text-anchor="middle">Fittonia Green Plant</text><text x="400" y="760" font-family="Georgia, 'Times New Roman', serif" font-size="44" font-weight="700" fill="#1F3B22" text-anchor="middle">(Nerve Plant)</text><text x="40" y="60" font-family="Arial, sans-serif" font-size="24" font-weight="700" fill="#1F3B22" opacity="0.75">buddy4plant</text><text x="760" y="60" font-family="Arial, sans-serif" font-size="22" font-weight="700" fill="#1F3B22" opacity="0.6" text-anchor="end">Indoor Plant</text></svg>