<svg xmlns="http://www.w3.org/2000/svg" viewBox="0 0 800 800" width="800" height="800"><defs><linearGradient id="bg" x1="0" y1="0" x2="0" y2="1"><stop offset="0" stop-color="#EFF5EA"/><stop offset="1" stop-color="#DDEAD2"/></linearGradient></defs><rect width="800" height="800" fill="url(#bg)"/><ellipse cx="400" cy="625" rx="190" ry="18" fill="rgba(0,0,0,0.08)"/><g transform="translate(400 450) scale(1.25) translate(-400 -450)"><rect x="355" y="235" width="22" height="220" rx="8" fill="#7FB24A"/><rect x="354" y="279" width="24" height="6" rx="3" fill="#5E8F34"/><rect x="354" y="323" width="24" height="6" rx="3" fill="#5E8F34"/><rect x="354" y="367" width="24" height="6" rx="3" fill="#5E8F34"/><rect x="354" y="411" width="24" height="6" rx="3" fill="#5E8F34"/><path d="M366.0,245.0 Q354.2,209.2 321.0,191.4 Q332.8,227.2 366.0,245.0Z" fill="#3F8F4A"/><path d="M366.0,245.0 L321.0,191.4" stroke="rgba(0,0,0,0.18)" stroke-width="3" fill="none"/><path d="M366.0,245.0 Q399.2,227.2 411.0,191.4 Q377.8,209.2 366.0,245.0Z" fill="#3F8F4A"/><path d="M366.0,245.0 L411.0,191.4" stroke="rgba(0,0,0,0.18)" stroke-width="3" fill="none"/><rect x="389" y="195" width="22" height="260" rx="8" fill="#7FB24A"/><rect x="388" y="247" width="24" height="6" rx="3" fill="#5E8F34"/><rect x="388" y="299" width="24" height="6" rx="3" fill="#5E8F34"/><rect x="388" y="351" width="24" height="6" rx="3" fill="#5E8F34"/><rect x="388" y="403" width="24" height="6" rx="3" fill="#5E8F34"/><path d="M400.0,205.0 Q388.2,169.2 355.0,151.4 Q366.8,187.2 400.0,205.0Z" fill="#3F8F4A"/><path d="M400.0,205.0 L355.0,151.4" stroke="rgba(0,0,0,0.18)" stroke-width="3" fill="none"/><path d="M400.0,205.0 Q433.2,187.2 445.0,151.4 Q411.8,169.2 400.0,205.0Z" fill="#3F8F4A"/><path d="M400.0,205.0 L445.0,151.4" stroke="rgba(0,0,0,0.18)" stroke-width="3" fill="none"/><rect x="423" y="235" width="22" height="220" rx="8" fill="#7FB24A"/><rect x="422" y="279" width="24" height="6" rx="3" fill="#5E8F34"/><rect x="422" y="323" width="24" height="6" rx="3" fill="#5E8F34"/><rect x="422" y="367" width="24" height="6" rx="3" fill="#5E8F34"/><rect x="422" y="411" width="24" height="6" rx="3" fill="#5E8F34"/><path d="M434.0,245.0 Q422.2,209.2 389.0,191.4 Q400.8,227.2 434.0,245.0Z" fill="#3F8F4A"/><path d="M434.0,245.0 L389.0,191.4" stroke="rgba(0,0,0,0.18)" stroke-width="3" fill="none"/><path d="M434.0,245.0 Q467.2,227.2 479.0,191.4 Q445.8,209.2 434.0,245.0Z" fill="#3F8F4A"/><path d="M434.0,245.0 L479.0,191.4" stroke="rgba(0,0,0,0.18)" stroke-width="3" fill="none"/></g><path d="M275.0,450 L525.0,450 L505.0,615 Q505.0,623 495.0,623 L305.0,623 Q295.0,623 295.0,615Z" fill="#FBFBF8" stroke="#E2E2DA" stroke-width="3"/><rect x="269.0" y="442" width="262" height="20" rx="8" fill="#FFFFFF" stroke="#E2E2DA" stroke-width="3"/><circle cx="400" cy="535.8" r="32.5" fill="#CFE6EE" stroke="#B5D3DE" stroke-width="2"/><text x="400" y="540.8" font-family="Arial, sans-serif" font-size="11" font-weight="700" fill="#5A4636" text-anchor="middle">buddy4plant</text><rect x="0" y="650" width="800" height="150" fill="rgba(255,255,255,0.92)"/><text x="400" y="708" font-family="Georgia, 'Times New Roman', serif" font-size="44" font-weight="700" fill="#1F3B22" text-anchor="middle">Lucky Bamboo Plant - 3</text><text x="400" y="760" font-family="Georgia, 'Times New Roman', serif" font-size="44" font-weight="700" fill="#1F3B22" text-anchor="middle">Layer</text><text x="40" y="60" font-family="Arial, sans-serif" font-size="24" font-weight="700" fill="#1F3B22" opacity="0.75">buddy4plant</text><text x="760" y="60" font-family="Arial, sans-serif" font-size="22" font-weight="700" fill="#1F3B22" opacity="0.6" text-anchor="end">Indoor Plant</text></svg>