<svg xmlns="http://www.w3.org/2000/svg" viewBox="0 0 800 800" width="800" height="800"><defs><linearGradient id="bg" x1="0" y1="0" x2="0" y2="1"><stop offset="0" stop-color="#EEF4EC"/><stop offset="1" stop-color="#DCE8D8"/></linearGradient></defs><rect width="800" height="800" fill="url(#bg)"/><ellipse cx="400" cy="625" rx="190" ry="18" fill="rgba(0,0,0,0.08)"/><g transform="translate(400 450) scale(1.25) translate(-400 -450)"><path d="M400,445 Q450.84685197377416,338.00598127632156 501.6937039475484,358.00598127632156" stroke="#4E7A3A" stroke-width="4" fill="none"/><g transform="translate(501.7,358.0) rotate(-20.9) scale(0.758)"><path d="M0,40 C-60,0 -50,-60 0,-30 C50,-60 60,0 0,40Z" fill="#2A6B35"/><path d="M0,38 L0,-28" stroke="rgba(0,0,0,0.15)" stroke-width="4"/></g><g transform="translate(505.7,360.0) rotate(-27.7) scale(0.236)"><path d="M0,40 C-60,0 -50,-60 0,-30 C50,-60 60,0 0,40Z" fill="#E4C94A"/><path d="M0,38 L0,-28" stroke="rgba(0,0,0,0.15)" stroke-width="4"/></g><path d="M400,445 Q491.34423691337713,361.6186116881265 582.6884738267543,381.6186116881265" stroke="#4E7A3A" stroke-width="4" fill="none"/><g transform="translate(582.7,381.6) rotate(-26.5) scale(0.691)"><path d="M0,40 C-60,0 -50,-60 0,-30 C50,-60 60,0 0,40Z" fill="#3F8F4A"/><path d="M0,38 L0,-28" stroke="rgba(0,0,0,0.15)" stroke-width="4"/></g><g transform="translate(586.7,383.6) rotate(-29.7) scale(0.246)"><path d="M0,40 C-60,0 -50,-60 0,-30 C50,-60 60,0 0,40Z" fill="#E4C94A"/><path d="M0,38 L0,-28" stroke="rgba(0,0,0,0.15)" stroke-width="4"/></g><path d="M400,445 Q344.3408805796586,222.7997865992162 288.68176115931715,242.7997865992162" stroke="#4E7A3A" stroke-width="4" fill="none"/><g transform="translate(288.7,242.8) rotate(33.6) scale(0.552)"><path d="M0,40 C-60,0 -50,-60 0,-30 C50,-60 60,0 0,40Z" fill="#3F8F4A"/><path d="M0,38 L0,-28" stroke="rgba(0,0,0,0.15)" stroke-width="4"/></g><g transform="translate(292.7,244.8) rotate(-2.3) scale(0.295)"><path d="M0,40 C-60,0 -50,-60 0,-30 C50,-60 60,0 0,40Z" fill="#E4C94A"/><path d="M0,38 L0,-28" stroke="rgba(0,0,0,0.15)" stroke-width="4"/></g><path d="M400,445 Q370.166804730975,370.35367518199746 340.33360946195,390.35367518199746" stroke="#4E7A3A" stroke-width="4" fill="none"/><g transform="translate(340.3,390.4) rotate(-14.1) scale(0.617)"><path d="M0,40 C-60,0 -50,-60 0,-30 C50,-60 60,0 0,40Z" fill="#2A6B35"/><path d="M0,38 L0,-28" stroke="rgba(0,0,0,0.15)" stroke-width="4"/></g><g transform="translate(344.3,392.4) rotate(-39.2) scale(0.292)"><path d="M0,40 C-60,0 -50,-60 0,-30 C50,-60 60,0 0,40Z" fill="#E4C94A"/><path d="M0,38 L0,-28" stroke="rgba(0,0,0,0.15)" stroke-width="4"/></g><path d="M400,445 Q321.22769070010736,312.6141016124393 242.45538140021475,332.6141016124393" stroke="#4E7A3A" stroke-width="4" fill="none"/><g transform="translate(242.5,332.6) rotate(-4.2) scale(0.733)"><path d="M0,40 C-60,0 -50,-60 0,-30 C50,-60 60,0 0,40Z" fill="#3F8F4A"/><path d="M0,38 L0,-28" stroke="rgba(0,0,0,0.15)" stroke-width="4"/></g><g transform="translate(246.5,334.6) rotate(0.2) scale(0.288)"><path d="M0,40 C-60,0 -50,-60 0,-30 C50,-60 60,0 0,40Z" fill="#E4C94A"/><path d="M0,38 L0,-28" stroke="rgba(0,0,0,0.15)" stroke-width="4"/></g><path d="M400,445 Q363.8987854460887,298.5906877892296 327.7975708921774,318.5906877892296" stroke="#4E7A3A" stroke-width="4" fill="none"/><g transform="translate(327.8,318.6) rotate(-7.4) scale(0.675)"><path d="M0,40 C-60,0 -50,-60 0,-30 C50,-60 60,0 0,40Z" fill="#3F8F4A"/><path d="M0,38 L0,-28" stroke="rgba(0,0,0,0.15)" stroke-width="4"/></g><g transform="translate(331.8,320.6) rotate(-27.6) scale(0.314)"><path d="M0,40 C-60,0 -50,-60 0,-30 C50,-60 60,0 0,40Z" fill="#E4C94A"/><path d="M0,38 L0,-28" stroke="rgba(0,0,0,0.15)" stroke-width="4"/></g><path d="M400,445 Q493.6305503655824,386.17771785436133 587.2611007311648,406.17771785436133" stroke="#4E7A3A" stroke-width="4" fill="none"/><g transform="translate(587.3,406.2) rotate(-24.4) scale(0.795)"><path d="M0,40 C-60,0 -50,-60 0,-30 C50,-60 60,0 0,40Z" fill="#2A6B35"/><path d="M0,38 L0,-28" stroke="rgba(0,0,0,0.15)" stroke-width="4"/></g><g transform="translate(591.3,408.2) rotate(-18.2) scale(0.213)"><path d="M0,40 C-60,0 -50,-60 0,-30 C50,-60 60,0 0,40Z" fill="#E4C94A"/><path d="M0,38 L0,-28" stroke="rgba(0,0,0,0.15)" stroke-width="4"/></g><path d="M400,445 Q385.83130609475336,349.5865367469216 371.6626121895068,369.5865367469216" stroke="#4E7A3A" stroke-width="4" fill="none"/><g transform="translate(371.7,369.6) rotate(4.4) scale(0.574)"><path d="M0,40 C-60,0 -50,-60 0,-30 C50,-60 60,0 0,40Z" fill="#3F8F4A"/><path d="M0,38 L0,-28" stroke="rgba(0,0,0,0.15)" stroke-width="4"/></g><g transform="translate(375.7,371.6) rotate(-29.6) scale(0.211)"><path d="M0,40 C-60,0 -50,-60 0,-30 C50,-60 60,0 0,40Z" fill="#E4C94A"/><path d="M0,38 L0,-28" stroke="rgba(0,0,0,0.15)" stroke-width="4"/></g><path d="M400,445 Q316.44694016226276,371.75986012600526 232.8938803245255,391.75986012600526" stroke="#4E7A3A" stroke-width="4" fill="none"/><g transform="translate(232.9,391.8) rotate(31.4) scale(0.560)"><path d="M0,40 C-60,0 -50,-60 0,-30 C50,-60 60,0 0,40Z" fill="#3F8F4A"/><path d="M0,38 L0,-28" stroke="rgba(0,0,0,0.15)" stroke-width="4"/></g><g transform="translate(236.9,393.8) rotate(-13.4) scale(0.218)"><path d="M0,40 C-60,0 -50,-60 0,-30 C50,-60 60,0 0,40Z" fill="#E4C94A"/><path d="M0,38 L0,-28" stroke="rgba(0,0,0,0.15)" stroke-width="4"/></g><path d="M400,445 Q314.14827662853577,352.21384014828016 228.29655325707157,372.21384014828016" stroke="#4E7A3A" stroke-width="4" fill="none"/><g transform="translate(228.3,372.2) rotate(1.5) scale(0.683)"><path d="M0,40 C-60,0 -50,-60 0,-30 C50,-60 60,0 0,40Z" fill="#2A6B35"/><path d="M0,38 L0,-28" stroke="rgba(0,0,0,0.15)" stroke-width="4"/></g><g transform="translate(232.3,374.2) rotate(6.8) scale(0.298)"><path d="M0,40 C-60,0 -50,-60 0,-30 C50,-60 60,0 0,40Z" fill="#E4C94A"/><path d="M0,38 L0,-28" stroke="rgba(0,0,0,0.15)" stroke-width="4"/></g><path d="M400,445 Q418.37811459919146,267.30109836420513 436.7562291983829,287.30109836420513" stroke="#4E7A3A" stroke-width="4" fill="none"/><g transform="translate(436.8,287.3) rotate(-20.9) scale(0.797)"><path d="M0,40 C-60,0 -50,-60 0,-30 C50,-60 60,0 0,40Z" fill="#3F8F4A"/><path d="M0,38 L0,-28" stroke="rgba(0,0,0,0.15)" stroke-width="4"/></g><g transform="translate(440.8,289.3) rotate(-25.5) scale(0.245)"><path d="M0,40 C-60,0 -50,-60 0,-30 C50,-60 60,0 0,40Z" fill="#E4C94A"/><path d="M0,38 L0,-28" stroke="rgba(0,0,0,0.15)" stroke-width="4"/></g><path d="M400,445 Q336.5095466045516,281.59253503635597 273.0190932091032,301.59253503635597" stroke="#4E7A3A" stroke-width="4" fill="none"/><g transform="translate(273.0,301.6) rotate(38.3) scale(0.770)"><path d="M0,40 C-60,0 -50,-60 0,-30 C50,-60 60,0 0,40Z" fill="#3F8F4A"/><path d="M0,38 L0,-28" stroke="rgba(0,0,0,0.15)" stroke-width="4"/></g><g transform="translate(277.0,303.6) rotate(26.6) scale(0.235)"><path d="M0,40 C-60,0 -50,-60 0,-30 C50,-60 60,0 0,40Z" fill="#E4C94A"/><path d="M0,38 L0,-28" stroke="rgba(0,0,0,0.15)" stroke-width="4"/></g><path d="M400,445 Q440.6179008893755,214.3156472417486 481.23580177875095,234.3156472417486" stroke="#4E7A3A" stroke-width="4" fill="none"/><g transform="translate(481.2,234.3) rotate(25.5) scale(0.571)"><path d="M0,40 C-60,0 -50,-60 0,-30 C50,-60 60,0 0,40Z" fill="#2A6B35"/><path d="M0,38 L0,-28" stroke="rgba(0,0,0,0.15)" stroke-width="4"/></g><g transform="translate(485.2,236.3) rotate(39.8) scale(0.300)"><path d="M0,40 C-60,0 -50,-60 0,-30 C50,-60 60,0 0,40Z" fill="#E4C94A"/><path d="M0,38 L0,-28" stroke="rgba(0,0,0,0.15)" stroke-width="4"/></g><path d="M400,445 Q437.0793187363557,271.4709947592925 474.15863747271135,291.4709947592925" stroke="#4E7A3A" stroke-width="4" fill="none"/><g transform="translate(474.2,291.5) rotate(-36.1) scale(0.604)"><path d="M0,40 C-60,0 -50,-60 0,-30 C50,-60 60,0 0,40Z" fill="#3F8F4A"/><path d="M0,38 L0,-28" stroke="rgba(0,0,0,0.15)" stroke-width="4"/></g><g transform="translate(478.2,293.5) rotate(8.7) scale(0.221)"><path d="M0,40 C-60,0 -50,-60 0,-30 C50,-60 60,0 0,40Z" fill="#E4C94A"/><path d="M0,38 L0,-28" stroke="rgba(0,0,0,0.15)" stroke-width="4"/></g></g><path d="M275.0,450 L525.0,450 L505.0,615 Q505.0,623 495.0,623 L305.0,623 Q295.0,623 295.0,615Z" fill="#FBFBF8" stroke="#E2E2DA" stroke-width="3"/><rect x="269.0" y="442" width="262" height="20" rx="8" fill="#FFFFFF" stroke="#E2E2DA" stroke-width="3"/><circle cx="400" cy="535.8" r="32.5" fill="#CFE6EE" stroke="#B5D3DE" stroke-width="2"/><text x="400" y="540.8" font-family="Arial, sans-serif" font-size="11" font-weight="700" fill="#5A4636" text-anchor="middle">buddy4plant</text><rect x="0" y="650" width="800" height="150" fill="rgba(255,255,255,0.92)"/><text x="400" y="708" font-family="Georgia, 'Times New Roman', serif" font-size="44" font-weight="700" fill="#1F3B22" text-anchor="middle">Philodendron Oxycardium</text><text x="400" y="760" font-family="Georgia, 'Times New Roman', serif" font-size="44" font-weight="700" fill="#1F3B22" text-anchor="middle">Golden with Hanging Pot</text><text x="40" y="60" font-family="Arial, sans-serif" font-size="24" font-weight="700" fill="#1F3B22" opacity="0.75">buddy4plant</text><text x="760" y="60" font-family="Arial, sans-serif" font-size="22" font-weight="700" fill="#1F3B22" opacity="0.6" text-anchor="end">Indoor Plant</text></svg>