<svg xmlns="http://www.w3.org/2000/svg" viewBox="0 0 800 800" width="800" height="800"><defs><linearGradient id="bg" x1="0" y1="0" x2="0" y2="1"><stop offset="0" stop-color="#EEF4EC"/><stop offset="1" stop-color="#DCE8D8"/></linearGradient></defs><rect width="800" height="800" fill="url(#bg)"/><ellipse cx="400" cy="625" rx="190" ry="18" fill="rgba(0,0,0,0.08)"/><g transform="translate(400 450) scale(1.25) translate(-400 -450)"><path d="M400.0,455.0 Q282.1,407.8 203.5,360.7" stroke="#4E7A3A" stroke-width="4" fill="none" stroke-linecap="round"/><path d="M203.5,390.7 Q161.8,333.0 90.8,336.6 Q132.4,394.3 203.5,390.7Z" fill="#2A6B35"/><path d="M203.5,390.7 L90.8,336.6" stroke="rgba(0,0,0,0.18)" stroke-width="3" fill="none"/><path d="M203.5,385.7 Q182.4,356.7 146.7,358.4 Q167.7,387.4 203.5,385.7Z" fill="#F3F1E4"/><path d="M400.0,455.0 Q317.6,380.9 262.7,306.7" stroke="#4E7A3A" stroke-width="4" fill="none" stroke-linecap="round"/><path d="M262.7,336.7 Q253.3,276.5 194.0,262.5 Q203.4,322.7 262.7,336.7Z" fill="#3F8F4A"/><path d="M262.7,336.7 L194.0,262.5" stroke="rgba(0,0,0,0.18)" stroke-width="3" fill="none"/><path d="M262.7,331.7 Q247.6,290.4 207.6,272.3 Q222.7,313.5 262.7,331.7Z" fill="#F3F1E4"/><path d="M400.0,455.0 Q319.8,377.7 266.3,300.5" stroke="#4E7A3A" stroke-width="4" fill="none" stroke-linecap="round"/><path d="M266.3,330.5 Q256.3,266.9 194.9,247.8 Q204.9,311.4 266.3,330.5Z" fill="#2A6B35"/><path d="M266.3,330.5 L194.9,247.8" stroke="rgba(0,0,0,0.18)" stroke-width="3" fill="none"/><path d="M266.3,325.5 Q258.0,289.8 223.9,276.4 Q232.3,312.1 266.3,325.5Z" fill="#F3F1E4"/><path d="M400.0,455.0 Q366.7,375.7 344.5,296.4" stroke="#4E7A3A" stroke-width="4" fill="none" stroke-linecap="round"/><path d="M344.5,326.4 Q359.0,265.0 309.4,226.1 Q294.8,287.5 344.5,326.4Z" fill="#3F8F4A"/><path d="M344.5,326.4 L309.4,226.1" stroke="rgba(0,0,0,0.18)" stroke-width="3" fill="none"/><path d="M344.5,321.4 Q347.9,279.6 319.1,249.0 Q315.8,290.8 344.5,321.4Z" fill="#F3F1E4"/><path d="M400.0,455.0 Q402.1,367.3 403.5,279.6" stroke="#4E7A3A" stroke-width="4" fill="none" stroke-linecap="round"/><path d="M403.5,309.6 Q438.7,248.6 405.9,186.1 Q370.7,247.2 403.5,309.6Z" fill="#2A6B35"/><path d="M403.5,309.6 L405.9,186.1" stroke="rgba(0,0,0,0.18)" stroke-width="3" fill="none"/><path d="M403.5,304.6 Q421.3,263.6 405.1,222.0 Q387.3,263.0 403.5,304.6Z" fill="#F3F1E4"/><path d="M400.0,455.0 Q406.8,359.5 411.3,264.1" stroke="#4E7A3A" stroke-width="4" fill="none" stroke-linecap="round"/><path d="M411.3,294.1 Q448.6,239.5 418.0,180.9 Q380.7,235.5 411.3,294.1Z" fill="#3F8F4A"/><path d="M411.3,294.1 L418.0,180.9" stroke="rgba(0,0,0,0.18)" stroke-width="3" fill="none"/><path d="M411.3,289.1 Q430.2,256.6 415.3,222.1 Q396.3,254.6 411.3,289.1Z" fill="#F3F1E4"/><path d="M400.0,455.0 Q446.0,375.8 476.7,296.6" stroke="#4E7A3A" stroke-width="4" fill="none" stroke-linecap="round"/><path d="M476.7,326.6 Q528.1,298.6 518.3,240.8 Q466.9,268.9 476.7,326.6Z" fill="#2A6B35"/><path d="M476.7,326.6 L518.3,240.8" stroke="rgba(0,0,0,0.18)" stroke-width="3" fill="none"/><path d="M476.7,321.6 Q509.3,293.4 511.3,250.3 Q478.7,278.5 476.7,321.6Z" fill="#F3F1E4"/><path d="M400.0,455.0 Q474.2,359.5 523.7,264.1" stroke="#4E7A3A" stroke-width="4" fill="none" stroke-linecap="round"/><path d="M523.7,294.1 Q579.8,270.1 578.8,209.1 Q522.8,233.1 523.7,294.1Z" fill="#3F8F4A"/><path d="M523.7,294.1 L578.8,209.1" stroke="rgba(0,0,0,0.18)" stroke-width="3" fill="none"/><path d="M523.7,289.1 Q556.1,270.4 559.9,233.2 Q527.6,251.9 523.7,289.1Z" fill="#F3F1E4"/><path d="M400.0,455.0 Q483.6,393.7 539.3,332.5" stroke="#4E7A3A" stroke-width="4" fill="none" stroke-linecap="round"/><path d="M539.3,362.5 Q597.0,357.0 609.9,300.4 Q552.1,305.9 539.3,362.5Z" fill="#2A6B35"/><path d="M539.3,362.5 L609.9,300.4" stroke="rgba(0,0,0,0.18)" stroke-width="3" fill="none"/><path d="M539.3,357.5 Q580.8,343.6 599.9,304.2 Q558.4,318.1 539.3,357.5Z" fill="#F3F1E4"/><path d="M400.0,455.0 Q482.9,415.2 538.2,375.3" stroke="#4E7A3A" stroke-width="4" fill="none" stroke-linecap="round"/><path d="M538.2,405.3 Q603.2,407.1 634.2,349.9 Q569.3,348.2 538.2,405.3Z" fill="#3F8F4A"/><path d="M538.2,405.3 L634.2,349.9" stroke="rgba(0,0,0,0.18)" stroke-width="3" fill="none"/><path d="M538.2,400.3 Q577.8,397.1 600.3,364.5 Q560.8,367.7 538.2,400.3Z" fill="#F3F1E4"/></g><path d="M275.0,450 L525.0,450 L505.0,615 Q505.0,623 495.0,623 L305.0,623 Q295.0,623 295.0,615Z" fill="#FBFBF8" stroke="#E2E2DA" stroke-width="3"/><rect x="269.0" y="442" width="262" height="20" rx="8" fill="#FFFFFF" stroke="#E2E2DA" stroke-width="3"/><circle cx="400" cy="535.8" r="32.5" fill="#CFE6EE" stroke="#B5D3DE" stroke-width="2"/><text x="400" y="540.8" font-family="Arial, sans-serif" font-size="11" font-weight="700" fill="#5A4636" text-anchor="middle">buddy4plant</text><rect x="0" y="690" width="800" height="110" fill="rgba(255,255,255,0.92)"/><text x="400" y="748" font-family="Georgia, 'Times New Roman', serif" font-size="44" font-weight="700" fill="#1F3B22" text-anchor="middle">Syngonium Confetti</text><text x="40" y="60" font-family="Arial, sans-serif" font-size="24" font-weight="700" fill="#1F3B22" opacity="0.75">buddy4plant</text><text x="760" y="60" font-family="Arial, sans-serif" font-size="22" font-weight="700" fill="#1F3B22" opacity="0.6" text-anchor="end">Indoor Plant</text></svg>