<svg xmlns="http://www.w3.org/2000/svg" viewBox="0 0 1200 800" preserveAspectRatio="xMidYMid slice" xmlns:c2pa="http://c2pa.org/manifest"><metadata><c2pa:manifest>AAAWgmp1bWIAAAAeanVtZGMycGEAEQAQgAAAqgA4m3EDYzJwYQAAABZcanVtYgAAAEdqdW1kYzJtYQARABCAAACqADibcQN1cm46YzJwYToyNWNkN2M1YS0wM2JiLTQzYTktODEwMC1lMTBjMDY1Y2Q3YjgAAAADl2p1bWIAAAApanVtZGMyYXMAEQAQgAAAqgA4m3EDYzJwYS5hc3NlcnRpb25zAAAAALxqdW1iAAAARGp1bWRjYm9yABEAEIAAAKoAOJtxE2MycGEuaW5ncmVkaWVudC52MwAAAAAYYzJzaG8b36CaT2F34+ZYXumtsa4AAABwY2JvcqNpZGM6Zm9ybWF0bWltYWdlL3N2Zyt4bWxqaW5zdGFuY2VJRHgseG1wOmlpZDo4Njc3MDI4Yi02YmRhLTQxMGItYTI4Ni1kMWFjYzBhMzVkZWRscmVsYXRpb25zaGlwaHBhcmVudE9mAAAB4mp1bWIAAABBanVtZGNib3IAEQAQgAAAqgA4m3ETYzJwYS5hY3Rpb25zLnYyAAAAABhjMnNoorLlRrPMFYIAzRkj3MUe5QAAAZljYm9yomdhY3Rpb25zgqJmYWN0aW9ua2MycGEub3BlbmVkanBhcmFtZXRlcnOha2luZ3JlZGllbnRzgaJjdXJseC1zZWxmI2p1bWJmPWMycGEuYXNzZXJ0aW9ucy9jMnBhLmluZ3JlZGllbnQudjNkaGFzaFgg2iLdrX35D228LQRKspfD0sNJMHVBHg8eb8gfyzLiU7WkZmFjdGlvbngdY29tLmFudGhyb3BpYy5jbGF1ZGUucHJvdmlkZWRqcGFyYW1ldGVyc6F4H2NvbS5hbnRocm9waWMub3JpZ2luLWNvbmZpZGVuY2VndW5rbm93bmtkZXNjcmlwdGlvbnhmQ2xhdWRlIHByb3ZpZGVkIHRoaXMgZmlsZSBhdCB0aGUgcmVxdWVzdCBvZiBhIHVzZXIgYW5kIG1heSBoYXZlIGNyZWF0ZWQgb3IgbW9kaWZpZWQgdGhlIGZpbGUgY29udGVudHMubXNvZnR3YXJlQWdlbnShZG5hbWVmQ2xhdWRlcmFsbEFjdGlvbnNJbmNsdWRlZPUAAADIanVtYgAAAEBqdW1kY2JvcgARABCAAACqADibcRNjMnBhLmhhc2guZGF0YQAAAAAYYzJzaMaLLnCuC7sW0O6SgwEdoCAAAACAY2JvcqVjYWxnZnNoYTI1NmNwYWRNAAAAAAAAAAAAAAAAAGRoYXNoWCDyREGfEIT7bljkPR7ppTTiz7jsrzagYH5WJeQxDdgK0WRuYW1lbmp1bWJmIG1hbmlmZXN0amV4Y2x1c2lvbnOBomVzdGFydBijZmxlbmd0aBkeBAAAAj5qdW1iAAAAJ2p1bWRjMmNsABEAEIAAAKoAOJtxA2MycGEuY2xhaW0udjIAAAACD2Nib3KlY2FsZ2ZzaGEyNTZpc2lnbmF0dXJleE1zZWxmI2p1bWJmPS9jMnBhL3VybjpjMnBhOjI1Y2Q3YzVhLTAzYmItNDNhOS04MTAwLWUxMGMwNjVjZDdiOC9jMnBhLnNpZ25hdHVyZWppbnN0YW5jZUlEeCx4bXA6aWlkOjBkNmU3ZTFjLTAwY2QtNGNlZC1iYjdiLWU0NDhmMzI3OGRiNXJjcmVhdGVkX2Fzc2VydGlvbnODomN1cmx4LXNlbGYjanVtYmY9YzJwYS5hc3NlcnRpb25zL2MycGEuaW5ncmVkaWVudC52M2RoYXNoWCDaIt2tffkPbbwtBEqyl8PSw0kwdUEeDx5vyB/LMuJTtaJjdXJseCpzZWxmI2p1bWJmPWMycGEuYXNzZXJ0aW9ucy9jMnBhLmFjdGlvbnMudjJkaGFzaFggvBkS/3qwKMB9vTy0tyFcG2lC4zO98yXcJcoMeXiw5yuiY3VybHgpc2VsZiNqdW1iZj1jMnBhLmFzc2VydGlvbnMvYzJwYS5oYXNoLmRhdGFkaGFzaFggnfrSZjxR27Wab+V/pUamZJ3Som1TWaBnN27xrX3qaaF0Y2xhaW1fZ2VuZXJhdG9yX2luZm+jZG5hbWVvQW50aHJvcGljIEZpbGVzZ3ZlcnNpb25lMS4wLjBrc3BlY1ZlcnNpb25lMi40LjAAABA4anVtYgAAAChqdW1kYzJjcwARABCAAACqADibcQNjMnBhLnNpZ25hdHVyZQAAABAIY2JvctKEWQISogEmGCFZAgowggIGMIIBjaADAgECAhRA5aAK7sI50L64g/oGQgU9Z1UTADAKBggqhkjOPQQDAzBJMRcwFQYDVQQKEw5BbnRocm9waWMsIFBCQzEuMCwGA1UEAxMlQW50aHJvcGljIENvbnRlbnQgQ3JlZGVudGlhbHMgUm9vdCBDQTAeFw0yNjA4MDcxODQzNTZaFw0yODA4MDYxOTQzNTZaMEQxFzAVBgNVBAoTDkFudGhyb3BpYywgUEJDMSkwJwYDVQQDEyBBbnRocm9waWMgQ2xhdWRlIENvbnRlbnQgU2lnbmluZzBZMBMGByqGSM49AgEGCCqGSM49AwEHA0IABJh6CmvLUBgFFNU0vUKlOVtE6djd17L5SuwX0LemFisBM3dkd/3cyjxFA3Qo5S46fX0/ihY0VZ7mfb9KF703t5OjWDBWMA4GA1UdDwEB/wQEAwIHgDAVBgNVHSUEDjAMBgorBgEEAYPoXgIBMAwGA1UdEwEB/wQCMAAwHwYDVR0jBBgwFoAUzlHiBIFOZFsj+OPEz5o+nMHXXMIwCgYIKoZIzj0EAwMDZwAwZAIwMXMdFJ4BetLLVY7ORuE9noqbbAZOZn/aArXyTwFAZfKrPzxF2vPoJNf1+UCdg1XGAjBwX1zd9WGqYkqmL5SFqw1QySjr1zJfpJM9+1rdDwSPLMOPOjKuiXjoU/pUUeG9RwmhY3BhZFkNngAAAAAAAAAAAAAAAAAAAAAAAAAAAAAAAAAAAAAAAAAAAAAAAAAAAAAAAAAAAAAAAAAAAAAAAAAAAAAAAAAAAAAAAAAAAAAAAAAAAAAAAAAAAAAAAAAAAAAAAAAAAAAAAAAAAAAAAAAAAAAAAAAAAAAAAAAAAAAAAAAAAAAAAAAAAAAAAAAAAAAAAAAAAAAAAAAAAAAAAAAAAAAAAAAAAAAAAAAAAAAAAAAAAAAAAAAAAAAAAAAAAAAAAAAAAAAAAAAAAAAAAAAAAAAAAAAAAAAAAAAAAAAAAAAAAAAAAAAAAAAAAAAAAAAAAAAAAAAAAAAAAAAAAAAAAAAAAAAAAAAAAAAAAAAAAAAAAAAAAAAAAAAAAAAAAAAAAAAAAAAAAAAAAAAAAAAAAAAAAAAAAAAAAAAAAAAAAAAAAAAAAAAAAAAAAAAAAAAAAAAAAAAAAAAAAAAAAAAAAAAAAAAAAAAAAAAAAAAAAAAAAAAAAAAAAAAAAAAAAAAAAAAAAAAAAAAAAAAAAAAAAAAAAAAAAAAAAAAAAAAAAAAAAAAAAAAAAAAAAAAAAAAAAAAAAAAAAAAAAAAAAAAAAAAAAAAAAAAAAAAAAAAAAAAAAAAAAAAAAAAAAAAAAAAAAAAAAAAAAAAAAAAAAAAAAAAAAAAAAAAAAAAAAAAAAAAAAAAAAAAAAAAAAAAAAAAAAAAAAAAAAAAAAAAAAAAAAAAAAAAAAAAAAAAAAAAAAAAAAAAAAAAAAAAAAAAAAAAAAAAAAAAAAAAAAAAAAAAAAAAAAAAAAAAAAAAAAAAAAAAAAAAAAAAAAAAAAAAAAAAAAAAAAAAAAAAAAAAAAAAAAAAAAAAAAAAAAAAAAAAAAAAAAAAAAAAAAAAAAAAAAAAAAAAAAAAAAAAAAAAAAAAAAAAAAAAAAAAAAAAAAAAAAAAAAAAAAAAAAAAAAAAAAAAAAAAAAAAAAAAAAAAAAAAAAAAAAAAAAAAAAAAAAAAAAAAAAAAAAAAAAAAAAAAAAAAAAAAAAAAAAAAAAAAAAAAAAAAAAAAAAAAAAAAAAAAAAAAAAAAAAAAAAAAAAAAAAAAAAAAAAAAAAAAAAAAAAAAAAAAAAAAAAAAAAAAAAAAAAAAAAAAAAAAAAAAAAAAAAAAAAAAAAAAAAAAAAAAAAAAAAAAAAAAAAAAAAAAAAAAAAAAAAAAAAAAAAAAAAAAAAAAAAAAAAAAAAAAAAAAAAAAAAAAAAAAAAAAAAAAAAAAAAAAAAAAAAAAAAAAAAAAAAAAAAAAAAAAAAAAAAAAAAAAAAAAAAAAAAAAAAAAAAAAAAAAAAAAAAAAAAAAAAAAAAAAAAAAAAAAAAAAAAAAAAAAAAAAAAAAAAAAAAAAAAAAAAAAAAAAAAAAAAAAAAAAAAAAAAAAAAAAAAAAAAAAAAAAAAAAAAAAAAAAAAAAAAAAAAAAAAAAAAAAAAAAAAAAAAAAAAAAAAAAAAAAAAAAAAAAAAAAAAAAAAAAAAAAAAAAAAAAAAAAAAAAAAAAAAAAAAAAAAAAAAAAAAAAAAAAAAAAAAAAAAAAAAAAAAAAAAAAAAAAAAAAAAAAAAAAAAAAAAAAAAAAAAAAAAAAAAAAAAAAAAAAAAAAAAAAAAAAAAAAAAAAAAAAAAAAAAAAAAAAAAAAAAAAAAAAAAAAAAAAAAAAAAAAAAAAAAAAAAAAAAAAAAAAAAAAAAAAAAAAAAAAAAAAAAAAAAAAAAAAAAAAAAAAAAAAAAAAAAAAAAAAAAAAAAAAAAAAAAAAAAAAAAAAAAAAAAAAAAAAAAAAAAAAAAAAAAAAAAAAAAAAAAAAAAAAAAAAAAAAAAAAAAAAAAAAAAAAAAAAAAAAAAAAAAAAAAAAAAAAAAAAAAAAAAAAAAAAAAAAAAAAAAAAAAAAAAAAAAAAAAAAAAAAAAAAAAAAAAAAAAAAAAAAAAAAAAAAAAAAAAAAAAAAAAAAAAAAAAAAAAAAAAAAAAAAAAAAAAAAAAAAAAAAAAAAAAAAAAAAAAAAAAAAAAAAAAAAAAAAAAAAAAAAAAAAAAAAAAAAAAAAAAAAAAAAAAAAAAAAAAAAAAAAAAAAAAAAAAAAAAAAAAAAAAAAAAAAAAAAAAAAAAAAAAAAAAAAAAAAAAAAAAAAAAAAAAAAAAAAAAAAAAAAAAAAAAAAAAAAAAAAAAAAAAAAAAAAAAAAAAAAAAAAAAAAAAAAAAAAAAAAAAAAAAAAAAAAAAAAAAAAAAAAAAAAAAAAAAAAAAAAAAAAAAAAAAAAAAAAAAAAAAAAAAAAAAAAAAAAAAAAAAAAAAAAAAAAAAAAAAAAAAAAAAAAAAAAAAAAAAAAAAAAAAAAAAAAAAAAAAAAAAAAAAAAAAAAAAAAAAAAAAAAAAAAAAAAAAAAAAAAAAAAAAAAAAAAAAAAAAAAAAAAAAAAAAAAAAAAAAAAAAAAAAAAAAAAAAAAAAAAAAAAAAAAAAAAAAAAAAAAAAAAAAAAAAAAAAAAAAAAAAAAAAAAAAAAAAAAAAAAAAAAAAAAAAAAAAAAAAAAAAAAAAAAAAAAAAAAAAAAAAAAAAAAAAAAAAAAAAAAAAAAAAAAAAAAAAAAAAAAAAAAAAAAAAAAAAAAAAAAAAAAAAAAAAAAAAAAAAAAAAAAAAAAAAAAAAAAAAAAAAAAAAAAAAAAAAAAAAAAAAAAAAAAAAAAAAAAAAAAAAAAAAAAAAAAAAAAAAAAAAAAAAAAAAAAAAAAAAAAAAAAAAAAAAAAAAAAAAAAAAAAAAAAAAAAAAAAAAAAAAAAAAAAAAAAAAAAAAAAAAAAAAAAAAAAAAAAAAAAAAAAAAAAAAAAAAAAAAAAAAAAAAAAAAAAAAAAAAAAAAAAAAAAAAAAAAAAAAAAAAAAAAAAAAAAAAAAAAAAAAAAAAAAAAAAAAAAAAAAAAAAAAAAAAAAAAAAAAAAAAAAAAAAAAAAAAAAAAAAAAAAAAAAAAAAAAAAAAAAAAAAAAAAAAAAAAAAAAAAAAAAAAAAAAAAAAAAAAAAAAAAAAAAAAAAAAAAAAAAAAAAAAAAAAAAAAAAAAAAAAAAAAAAAAAAAAAAAAAAAAAAAAAAAAAAAAAAAAAAAAAAAAAAAAAAAAAAAAAAAAAAAAAAAAAAAAAAAAAAAAAAAAAAAAAAAAAAAAAAAAAAAAAAAAAAAAAAAAAAAAAAAAAAAAAAAAAAAAAAAAAAAAAAAAAAAAAAAAAAAAAAAAAAAAAAAAAAAAAAAAAAAAAAAAAAAAAAAAAAAAAAAAAAAAAAAAAAAAAAAAAAAAAAAAAAAAAAAAAAAAAAAAAAAAAAAAAAAAAAAAAAAAAAAAAAAAAAAAAAAAAAAAAAAAAAAAAAAAAAAAAAAAAAAAAAAAAAAAAAAAAAAAAAAAAAAAAAAAAAAAAAAAAAAAAAAAAAAAAAAAAAAAAAAAAAAAAAAAAAAAAAAAAAAAAAAAAAAAAAAAAAAAAAAAAAAAAAAAAAAAAAAAAAAAAAAAAAAAAAAAAAAAAAAAAAAAAAAAAAAAAAAAAAAAAAAAAAAAAAAAAAAAAAAAAAAAAAAAAAAAAAAAAAAAAAAAAAAAAAAAAAAAAAAAAAAAAAAAAAAAAAAAAAAAAAAAAAAAAAAAAAAAAAAAAAAAAAAAAAAAAAAAAAAAAAAAAAAAAAAAAAAAAAAAAAAAAAAAAAAAAAAAAAAAAAAAAAAAAAAAAAAAAAAAAAAAAAAAAAAAAAAAAAAAAAAAAAAAAAAAAAAAAAAAAAAAAAAAAAAAAAAAAAAAAAAAAAAAAAAAAAAAAAAAAAAAAAAAAAAAAAAAAAAAAAAAAAAAAAAAAAAAAAAAAAAAAAAAAAAAAAAAAAAAAAAAAAAAAAAAAAAAAAAAAAAAAAAAAAAAAAAAAAAAAAAAAAAAAAAAAAAAAAAAAAAAAAAAAAAAAAAAAAAAAAAAAAAAAAAAAAAAAAAAAAAAAAAAAAAAAAAAAAAAAAAAAAAAAAAAAAAAAAAAAAAAAAAAAAAAAAAAAAAAAAAAAAAAAAAAAAAAAAAAAAAAAAAAAAAAAAAAAAAAAAAAAAAAAAAAAAAAAAAAAAAAAAAAAAAAAAAAAAAAAAAAAAAAAAAAAAAAAAAAAAAAAAAAAAAAAAAAAAAAAAAAAAAAAAAAAAAAAAAAAAAAAAAAAAAAAAAAAAAAAAAAAAAAAAAAAAAAAAAAAAAAAAAAAAAAAAAAAAAAAAAAAAAAAAAAAAAAAAAAAAAAAAAAAAAAAAAAAAAAAAAAAAAAAAAAAAAAAAAAAAAAAAAAAAAAAAAAAAAAAAAAAAAAAAAAAAAAAAAAAAAAAAAAAAAAAAAAAAAAAAAAAAAAAAAAAAAAAAAAAAAAAAAAAAAAAAAAAAAAAAAAAAAAAAAAAAAAAAAAAAAAAAAAAAAAAAAAAAAAAAAAAAAAAAAAAAAAAAAAAAAAAAAAAAAAAAAAAAAAAAAAAAAAAAAAAAAAAAAAAAAAAAAAAAAAAAAAAAAAAAAAAAAAAAAAAAAAAAAAAAAAAAAAAAAAAAAAAAAAAAAAAAAAAAAAAAAAAAAAAAAAAAAAAAAAAAAAAAAAAAAAAAAAAAAAAAAAAAAAAAAAAAAAAAAAAAAAAAAAAAAAAAAAAAAAAAAAAAAAAAAAAAAAAAAAAAAAAAAAAAAAPZYQNmYIMsUSVb4KjkZyhAZ5BBt2aCmSU3M6rsCCdQWQy3fmBc+dcGN4BQlJ39MZ5Sic3IPRfbim33p9v/v3EYJ1xE=</c2pa:manifest></metadata><defs><linearGradient id="sky" x1="0" y1="0" x2="0" y2="1"><stop offset="0" stop-color="#CFE3C4"/><stop offset="1" stop-color="#E9F1E4"/></linearGradient><linearGradient id="lawn" x1="0" y1="0" x2="0" y2="1"><stop offset="0" stop-color="#8CC084"/><stop offset="1" stop-color="#5E9C57"/></linearGradient></defs><rect width="1200" height="800" fill="url(#sky)"/><circle cx="898" cy="171" r="80" fill="#F2C14E" opacity=".85"/><g fill="#FFFFFF" opacity=".75"><ellipse cx="410" cy="182" rx="70" ry="22"/><ellipse cx="450" cy="168" rx="46" ry="24"/></g><g fill="#FFFFFF" opacity=".75"><ellipse cx="761" cy="98" rx="70" ry="22"/><ellipse cx="801" cy="84" rx="46" ry="24"/></g><g fill="#FFFFFF" opacity=".75"><ellipse cx="1009" cy="152" rx="70" ry="22"/><ellipse cx="1049" cy="138" rx="46" ry="24"/></g><path d="M0 470 Q353 366 600 450 T1200 430 V800 H0Z" fill="#2D6A4F" opacity=".45"/><rect x="507" y="337" width="417" height="203" fill="#FFFFFF" opacity=".92" rx="3"/><rect x="501" y="329" width="429" height="10" fill="#E3DED2" rx="2"/><rect x="519.0" y="351" width="22.8" height="18" fill="#B9CFD6" rx="2"/><rect x="519.0" y="385" width="22.8" height="18" fill="#B9CFD6" rx="2"/><rect x="519.0" y="419" width="22.8" height="18" fill="#B9CFD6" rx="2"/><rect x="519.0" y="453" width="22.8" height="18" fill="#B9CFD6" rx="2"/><rect x="519.0" y="487" width="22.8" height="18" fill="#B9CFD6" rx="2"/><rect x="551.8" y="351" width="22.8" height="18" fill="#B9CFD6" rx="2"/><rect x="551.8" y="385" width="22.8" height="18" fill="#B9CFD6" rx="2"/><rect x="551.8" y="419" width="22.8" height="18" fill="#B9CFD6" rx="2"/><rect x="551.8" y="453" width="22.8" height="18" fill="#B9CFD6" rx="2"/><rect x="551.8" y="487" width="22.8" height="18" fill="#B9CFD6" rx="2"/><rect x="584.5" y="351" width="22.8" height="18" fill="#B9CFD6" rx="2"/><rect x="584.5" y="385" width="22.8" height="18" fill="#B9CFD6" rx="2"/><rect x="584.5" y="419" width="22.8" height="18" fill="#B9CFD6" rx="2"/><rect x="584.5" y="453" width="22.8" height="18" fill="#B9CFD6" rx="2"/><rect x="584.5" y="487" width="22.8" height="18" fill="#B9CFD6" rx="2"/><rect x="617.2" y="351" width="22.8" height="18" fill="#B9CFD6" rx="2"/><rect x="617.2" y="385" width="22.8" height="18" fill="#B9CFD6" rx="2"/><rect x="617.2" y="419" width="22.8" height="18" fill="#B9CFD6" rx="2"/><rect x="617.2" y="453" width="22.8" height="18" fill="#B9CFD6" rx="2"/><rect x="617.2" y="487" width="22.8" height="18" fill="#B9CFD6" rx="2"/><rect x="650.0" y="351" width="22.8" height="18" fill="#B9CFD6" rx="2"/><rect x="650.0" y="385" width="22.8" height="18" fill="#B9CFD6" rx="2"/><rect x="650.0" y="419" width="22.8" height="18" fill="#B9CFD6" rx="2"/><rect x="650.0" y="453" width="22.8" height="18" fill="#B9CFD6" rx="2"/><rect x="650.0" y="487" width="22.8" height="18" fill="#B9CFD6" rx="2"/><rect x="682.8" y="351" width="22.8" height="18" fill="#B9CFD6" rx="2"/><rect x="682.8" y="385" width="22.8" height="18" fill="#B9CFD6" rx="2"/><rect x="682.8" y="419" width="22.8" height="18" fill="#B9CFD6" rx="2"/><rect x="682.8" y="453" width="22.8" height="18" fill="#B9CFD6" rx="2"/><rect x="682.8" y="487" width="22.8" height="18" fill="#B9CFD6" rx="2"/><rect x="715.5" y="351" width="22.8" height="18" fill="#B9CFD6" rx="2"/><rect x="715.5" y="385" width="22.8" height="18" fill="#B9CFD6" rx="2"/><rect x="715.5" y="419" width="22.8" height="18" fill="#B9CFD6" rx="2"/><rect x="715.5" y="453" width="22.8" height="18" fill="#B9CFD6" rx="2"/><rect x="715.5" y="487" width="22.8" height="18" fill="#B9CFD6" rx="2"/><rect x="748.2" y="351" width="22.8" height="18" fill="#B9CFD6" rx="2"/><rect x="748.2" y="385" width="22.8" height="18" fill="#B9CFD6" rx="2"/><rect x="748.2" y="419" width="22.8" height="18" fill="#B9CFD6" rx="2"/><rect x="748.2" y="453" width="22.8" height="18" fill="#B9CFD6" rx="2"/><rect x="748.2" y="487" width="22.8" height="18" fill="#B9CFD6" rx="2"/><rect x="781.0" y="351" width="22.8" height="18" fill="#B9CFD6" rx="2"/><rect x="781.0" y="385" width="22.8" height="18" fill="#B9CFD6" rx="2"/><rect x="781.0" y="419" width="22.8" height="18" fill="#B9CFD6" rx="2"/><rect x="781.0" y="453" width="22.8" height="18" fill="#B9CFD6" rx="2"/><rect x="781.0" y="487" width="22.8" height="18" fill="#B9CFD6" rx="2"/><rect x="813.8" y="351" width="22.8" height="18" fill="#B9CFD6" rx="2"/><rect x="813.8" y="385" width="22.8" height="18" fill="#B9CFD6" rx="2"/><rect x="813.8" y="419" width="22.8" height="18" fill="#B9CFD6" rx="2"/><rect x="813.8" y="453" width="22.8" height="18" fill="#B9CFD6" rx="2"/><rect x="813.8" y="487" width="22.8" height="18" fill="#B9CFD6" rx="2"/><rect x="846.5" y="351" width="22.8" height="18" fill="#B9CFD6" rx="2"/><rect x="846.5" y="385" width="22.8" height="18" fill="#B9CFD6" rx="2"/><rect x="846.5" y="419" width="22.8" height="18" fill="#B9CFD6" rx="2"/><rect x="846.5" y="453" width="22.8" height="18" fill="#B9CFD6" rx="2"/><rect x="846.5" y="487" width="22.8" height="18" fill="#B9CFD6" rx="2"/><rect x="879.2" y="351" width="22.8" height="18" fill="#B9CFD6" rx="2"/><rect x="879.2" y="385" width="22.8" height="18" fill="#B9CFD6" rx="2"/><rect x="879.2" y="419" width="22.8" height="18" fill="#B9CFD6" rx="2"/><rect x="879.2" y="453" width="22.8" height="18" fill="#B9CFD6" rx="2"/><rect x="879.2" y="487" width="22.8" height="18" fill="#B9CFD6" rx="2"/><rect x="-21.3" y="478.1" width="10.6" height="69.9" rx="2" fill="#5B4632"/><circle cx="-16.0" cy="452.7" r="44.5" fill="#1F3B22"/><circle cx="-37.2" cy="469.2" r="31.8" fill="#2D6A4F" opacity=".9"/><path d="M69.0 548.0 Q74.8 508.1 69.0 474.9" stroke="#6B5237" stroke-width="5.0" fill="none"/><path d="M69.0 474.9 q21.6 -18.0 39.6 7.2" stroke="#1F3B22" stroke-width="7.2" fill="none" stroke-linecap="round"/><path d="M69.0 474.9 q10.8 -18.0 19.8 18.4" stroke="#1F3B22" stroke-width="7.2" fill="none" stroke-linecap="round"/><path d="M69.0 474.9 q-10.8 -18.0 -19.8 18.4" stroke="#1F3B22" stroke-width="7.2" fill="none" stroke-linecap="round"/><path d="M69.0 474.9 q-21.6 -18.0 -39.6 7.2" stroke="#1F3B22" stroke-width="7.2" fill="none" stroke-linecap="round"/><path d="M69.0 474.9 q-10.8 -18.0 -19.8 -4.0" stroke="#1F3B22" stroke-width="7.2" fill="none" stroke-linecap="round"/><path d="M69.0 474.9 q10.8 -18.0 19.8 -4.0" stroke="#1F3B22" stroke-width="7.2" fill="none" stroke-linecap="round"/><rect x="159.8" y="486.1" width="10.5" height="61.9" rx="2" fill="#5B4632"/><path d="M165.0 396.0 L204.9 508.6 L125.1 508.6Z" fill="#1F3B22"/><path d="M259.0 548.0 Q266.0 496.8 259.0 454.1" stroke="#6B5237" stroke-width="6.1" fill="none"/><path d="M259.0 454.1 q26.1 -21.8 47.9 8.7" stroke="#1F3B22" stroke-width="8.7" fill="none" stroke-linecap="round"/><path d="M259.0 454.1 q13.1 -21.8 23.9 22.3" stroke="#1F3B22" stroke-width="8.7" fill="none" stroke-linecap="round"/><path d="M259.0 454.1 q-13.0 -21.8 -23.9 22.3" stroke="#1F3B22" stroke-width="8.7" fill="none" stroke-linecap="round"/><path d="M259.0 454.1 q-26.1 -21.8 -47.9 8.7" stroke="#1F3B22" stroke-width="8.7" fill="none" stroke-linecap="round"/><path d="M259.0 454.1 q-13.1 -21.8 -23.9 -4.9" stroke="#1F3B22" stroke-width="8.7" fill="none" stroke-linecap="round"/><path d="M259.0 454.1 q13.1 -21.8 23.9 -4.9" stroke="#1F3B22" stroke-width="8.7" fill="none" stroke-linecap="round"/><rect x="338.4" y="509.0" width="7.3" height="39.0" rx="2" fill="#5B4632"/><circle cx="342.0" cy="494.8" r="30.7" fill="#1F3B22"/><circle cx="327.4" cy="504.0" r="21.9" fill="#2D6A4F" opacity=".9"/><rect x="419.4" y="488.1" width="9.2" height="59.9" rx="2" fill="#5B4632"/><circle cx="424.0" cy="466.4" r="38.6" fill="#1F3B22"/><circle cx="405.6" cy="480.5" r="27.6" fill="#2D6A4F" opacity=".9"/><rect x="680.9" y="488.2" width="10.3" height="59.8" rx="2" fill="#5B4632"/><path d="M686.0 401.1 L725.1 509.9 L646.9 509.9Z" fill="#1F3B22"/><rect x="849.0" y="491.3" width="10.0" height="56.7" rx="2" fill="#5B4632"/><path d="M854.0 408.7 L892.0 511.9 L816.0 511.9Z" fill="#1F3B22"/><path d="M951.0 548.0 Q957.0 503.1 951.0 465.7" stroke="#6B5237" stroke-width="5.3" fill="none"/><path d="M951.0 465.7 q22.5 -18.8 41.2 7.5" stroke="#1F3B22" stroke-width="7.5" fill="none" stroke-linecap="round"/><path d="M951.0 465.7 q11.3 -18.8 20.6 19.2" stroke="#1F3B22" stroke-width="7.5" fill="none" stroke-linecap="round"/><path d="M951.0 465.7 q-11.2 -18.8 -20.6 19.2" stroke="#1F3B22" stroke-width="7.5" fill="none" stroke-linecap="round"/><path d="M951.0 465.7 q-22.5 -18.8 -41.2 7.5" stroke="#1F3B22" stroke-width="7.5" fill="none" stroke-linecap="round"/><path d="M951.0 465.7 q-11.3 -18.8 -20.6 -4.2" stroke="#1F3B22" stroke-width="7.5" fill="none" stroke-linecap="round"/><path d="M951.0 465.7 q11.3 -18.8 20.6 -4.2" stroke="#1F3B22" stroke-width="7.5" fill="none" stroke-linecap="round"/><rect x="1017.5" y="511.8" width="7.1" height="36.2" rx="2" fill="#5B4632"/><path d="M1021.0 459.0 L1048.0 524.9 L994.0 524.9Z" fill="#1F3B22"/><rect x="1131.5" y="487.1" width="11.0" height="60.9" rx="2" fill="#5B4632"/><circle cx="1137.0" cy="464.9" r="46.2" fill="#1F3B22"/><circle cx="1115.0" cy="479.3" r="33.0" fill="#2D6A4F" opacity=".9"/><rect x="1206.9" y="498.5" width="8.2" height="49.5" rx="2" fill="#5B4632"/><circle cx="1211.0" cy="480.4" r="34.4" fill="#1F3B22"/><circle cx="1194.6" cy="492.1" r="24.6" fill="#2D6A4F" opacity=".9"/><path d="M0 540 Q600 510 1200 540 V800 H0Z" fill="url(#lawn)"/><path d="M0 550 L60 546 L-140 800 L-220 800Z" fill="#FFFFFF" opacity=".06"/><path d="M120 550 L180 546 L-20 800 L-100 800Z" fill="#FFFFFF" opacity=".06"/><path d="M240 550 L300 546 L100 800 L20 800Z" fill="#FFFFFF" opacity=".06"/><path d="M360 550 L420 546 L220 800 L140 800Z" fill="#FFFFFF" opacity=".06"/><path d="M480 550 L540 546 L340 800 L260 800Z" fill="#FFFFFF" opacity=".06"/><path d="M600 550 L660 546 L460 800 L380 800Z" fill="#FFFFFF" opacity=".06"/><path d="M720 550 L780 546 L580 800 L500 800Z" fill="#FFFFFF" opacity=".06"/><path d="M840 550 L900 546 L700 800 L620 800Z" fill="#FFFFFF" opacity=".06"/><path d="M960 550 L1020 546 L820 800 L740 800Z" fill="#FFFFFF" opacity=".06"/><path d="M1080 550 L1140 546 L940 800 L860 800Z" fill="#FFFFFF" opacity=".06"/><path d="M1200 550 L1260 546 L1060 800 L980 800Z" fill="#FFFFFF" opacity=".06"/><path d="M560 540 Q590 650 470 800 H760 Q640 650 640 540Z" fill="#E8DCC0"/><rect x="0" y="580" width="430" height="34" rx="17" fill="#1F3B22"/><rect x="770" y="580" width="430" height="34" rx="17" fill="#1F3B22"/><circle cx="242" cy="638" r="7" fill="#E07A9F"/><circle cx="408" cy="649" r="8" fill="#F25C54"/><circle cx="99" cy="665" r="7" fill="#F25C54"/><circle cx="151" cy="651" r="8" fill="#F4F1DE"/><circle cx="20" cy="642" r="9" fill="#E07A9F"/><circle cx="276" cy="667" r="8" fill="#F4F1DE"/><circle cx="42" cy="631" r="6" fill="#F25C54"/><circle cx="171" cy="660" r="6" fill="#F25C54"/><circle cx="142" cy="667" r="6" fill="#F25C54"/><circle cx="140" cy="670" r="6" fill="#F4F1DE"/><circle cx="176" cy="668" r="10" fill="#E07A9F"/><circle cx="360" cy="657" r="7" fill="#F25C54"/><circle cx="123" cy="646" r="6" fill="#F25C54"/><circle cx="223" cy="659" r="9" fill="#E07A9F"/><circle cx="55" cy="637" r="10" fill="#F7B267"/><circle cx="94" cy="651" r="8" fill="#FFD166"/><circle cx="190" cy="668" r="7" fill="#F7B267"/><circle cx="134" cy="651" r="6" fill="#F7B267"/><circle cx="377" cy="639" r="8" fill="#F25C54"/><circle cx="113" cy="636" r="7" fill="#F25C54"/><circle cx="396" cy="641" r="9" fill="#F25C54"/><circle cx="386" cy="646" r="7" fill="#F7B267"/><circle cx="90" cy="650" r="8" fill="#F4F1DE"/><circle cx="404" cy="646" r="6" fill="#FFD166"/><circle cx="185" cy="649" r="10" fill="#F4F1DE"/><circle cx="93" cy="646" r="10" fill="#F7B267"/><circle cx="1038" cy="668" r="10" fill="#E07A9F"/><circle cx="861" cy="664" r="6" fill="#F4F1DE"/><circle cx="1096" cy="669" r="9" fill="#F7B267"/><circle cx="1086" cy="660" r="8" fill="#F25C54"/><circle cx="992" cy="643" r="8" fill="#F4F1DE"/><circle cx="876" cy="635" r="9" fill="#FFD166"/><circle cx="926" cy="652" r="9" fill="#F7B267"/><circle cx="1002" cy="661" r="7" fill="#F4F1DE"/><circle cx="1024" cy="655" r="6" fill="#E07A9F"/><circle cx="1023" cy="650" r="8" fill="#E07A9F"/><circle cx="853" cy="637" r="9" fill="#FFD166"/><circle cx="1079" cy="638" r="6" fill="#F7B267"/><circle cx="934" cy="647" r="6" fill="#F25C54"/><circle cx="964" cy="634" r="10" fill="#F4F1DE"/><circle cx="1097" cy="645" r="6" fill="#F25C54"/><circle cx="1046" cy="630" r="8" fill="#F4F1DE"/><circle cx="1088" cy="668" r="7" fill="#F7B267"/><circle cx="837" cy="650" r="9" fill="#E07A9F"/><circle cx="1094" cy="670" r="8" fill="#F7B267"/><circle cx="796" cy="639" r="6" fill="#F4F1DE"/><circle cx="806" cy="662" r="8" fill="#F7B267"/><circle cx="985" cy="650" r="7" fill="#F25C54"/><circle cx="967" cy="670" r="8" fill="#F4F1DE"/><circle cx="936" cy="661" r="6" fill="#F7B267"/><circle cx="1161" cy="645" r="10" fill="#FFD166"/><circle cx="1054" cy="670" r="6" fill="#FFD166"/><ellipse cx="56" cy="760" rx="100" ry="66" fill="#1F3B22"/><ellipse cx="243" cy="760" rx="95" ry="62" fill="#1F3B22"/><ellipse cx="945" cy="760" rx="100" ry="71" fill="#1F3B22"/><ellipse cx="1125" cy="760" rx="107" ry="62" fill="#1F3B22"/></svg>